<?xml version="1.0" encoding="UTF-8" standalone="no"?>
<!-- Created with Inkscape (http://www.inkscape.org/) -->

<svg
   xmlns:dc="http://purl.org/dc/elements/1.1/"
   xmlns:cc="http://creativecommons.org/ns#"
   xmlns:rdf="http://www.w3.org/1999/02/22-rdf-syntax-ns#"
   xmlns:svg="http://www.w3.org/2000/svg"
   xmlns="http://www.w3.org/2000/svg"
   xmlns:sodipodi="http://sodipodi.sourceforge.net/DTD/sodipodi-0.dtd"
   xmlns:inkscape="http://www.inkscape.org/namespaces/inkscape"
   width="30"
   height="30"
   id="svg2"
   version="1.1"
   inkscape:version="0.48.2 r9819"
   sodipodi:docname="Uus dokument 1">
  <defs
     id="defs4" />
  <sodipodi:namedview
     id="base"
     pagecolor="#ffffff"
     bordercolor="#666666"
     borderopacity="1.0"
     inkscape:pageopacity="0.0"
     inkscape:pageshadow="2"
     inkscape:zoom="17.8"
     inkscape:cx="15"
     inkscape:cy="15"
     inkscape:document-units="px"
     inkscape:current-layer="layer1"
     showgrid="false"
     fit-margin-top="10"
     fit-margin-right="10"
     fit-margin-bottom="10"
     fit-margin-left="10"
     inkscape:window-width="1280"
     inkscape:window-height="752"
     inkscape:window-x="0"
     inkscape:window-y="0"
     inkscape:window-maximized="1" />
  <metadata
     id="metadata7">
    <rdf:RDF>
      <cc:Work
         rdf:about="">
        <dc:format>image/svg+xml</dc:format>
        <dc:type
           rdf:resource="http://purl.org/dc/dcmitype/StillImage" />
        <dc:title></dc:title>
      </cc:Work>
    </rdf:RDF>
  </metadata>
  <g
     inkscape:label="Layer 1"
     inkscape:groupmode="layer"
     id="layer1">
    <path
       style="fill:#333333;stroke:none"
       d="m 15.018683,3.1391031 c 6.443587,0 11.659423,5.2579 11.659423,11.7561999 0,6.4971 -5.214784,11.7561 -11.659423,11.7561 -6.443445,0 -11.6594235,-5.2579 -11.6594235,-11.7561 0,-6.4970999 5.2146408,-11.7561999 11.6594235,-11.7561999 m 0,-2.83279997 c -7.9909904,0 -14.4689234,6.53159997 -14.4689234,14.58899987 0,8.0573 6.477933,14.5891 14.4689234,14.5891 7.990916,0 14.468923,-6.5318 14.468923,-14.5891 0,-8.0573999 -6.478007,-14.58899987 -14.468923,-14.58899987 l 0,0 z M 14.777487,23.096903 c -1.981396,0.702 -3.614841,-0.1026 -3.287183,-2.0216 0.327797,-1.9192 2.207982,-6.0276 2.476222,-6.8044 0.268024,-0.777 -0.245971,-0.9899 -0.796913,-0.6738 -0.317758,0.1848 -0.790033,0.5553 -1.195442,0.9153 -0.112448,-0.2281 -0.270557,-0.4891 -0.389259,-0.7387 0.661568,-0.6686 1.767455,-1.5648 3.076615,-1.8897 1.564185,-0.3893 4.178565,0.2331 3.05491,3.2478 -0.802397,2.1486 -1.369845,3.6313 -1.727421,4.7356 -0.357372,1.1047 0.06708,1.3363 0.692749,0.906 0.488785,-0.3366 1.009453,-0.7943 1.391125,-1.1493 0.176646,0.2893 0.233116,0.3817 0.407799,0.7141 -0.662552,0.6848 -2.395661,2.2873 -3.703202,2.7587 z M 18.882869,9.8053031 c -0.89869,0.7711999 -2.230744,0.7545999 -2.975963,-0.038 -0.745011,-0.7919 -0.620689,-2.0594 0.277789,-2.8307 0.898621,-0.7712 2.230955,-0.7546 2.975961,0.038 0.744941,0.7922 0.620759,2.0595 -0.277787,2.8312 z"
       id="path2995"
       inkscape:connector-curvature="0" />
  </g>
</svg>
